<?xml version="1.0" encoding="UTF-8" standalone="no"?>
<!-- Uploaded to: SVG Repo, www.svgrepo.com, Generator: SVG Repo Mixer Tools -->

<svg
   width="800px"
   height="800px"
   viewBox="0 0 24 24"
   fill="none"
   version="1.1"
   id="svg3"
   xmlns="http://www.w3.org/2000/svg"
   xmlns:svg="http://www.w3.org/2000/svg">
  <defs
     id="defs3" />
  <path
     style="color:#000000;fill:#ffffff;stroke-linecap:round;stroke-linejoin:round;stroke:#000000;stroke-opacity:1;stroke-width:0.77043;stroke-dasharray:none;paint-order:normal;fill-opacity:1;stroke-dashoffset:0"
     d="m 12,2.25 c -5.3758852,0 -9.75,4.3741148 -9.75,9.75 0,5.375922 4.3741188,9.75 9.75,9.75 5.375918,0 9.75,-4.374082 9.75,-9.75 0,-5.3758812 -4.374078,-9.75 -9.75,-9.75 z m 0,1.5 c 4.565268,0 8.25,3.6847711 8.25,8.25 0,4.565272 -3.684728,8.25 -8.25,8.25 C 7.4347711,20.25 3.75,16.565268 3.75,12 3.75,7.4347752 7.4347752,3.75 12,3.75 Z"
     id="path1" />
  <path
     id="path2"
     style="color:#000000;fill:#ffffff;stroke-linecap:round;stroke-linejoin:round;stroke:#000000;stroke-opacity:1;stroke-width:0.77043;stroke-dasharray:none;paint-order:normal;fill-opacity:1;stroke-dashoffset:0"
     d="M 12 5.25 A 0.75 0.75 0 0 0 11.25 6 L 11.25 11.98623 A 0.75 0.75 0 0 0 11.46873 12.53127 L 15.708984 16.769531 A 0.75 0.75 0 0 0 16.769531 16.769531 A 0.75 0.75 0 0 0 16.769531 15.708984 L 12.75 11.687578 L 12.75 6 A 0.75 0.75 0 0 0 12 5.25 z " />
</svg>
